<?xml version="1.0" encoding="utf-8"?>
<!-- Generator: Adobe Illustrator 28.3.0, SVG Export Plug-In . SVG Version: 6.00 Build 0)  -->
<svg version="1.1" id="Ebene_1" xmlns:serif="http://www.serif.com/"
	 xmlns="http://www.w3.org/2000/svg" xmlns:xlink="http://www.w3.org/1999/xlink" x="0px" y="0px" viewBox="0 0 1920 1080"
	 style="enable-background:new 0 0 1920 1080;" xml:space="preserve">
<style type="text/css">
	.st0{fill:#666666;}
	.st1{fill:#F55500;}
	.st2{fill:#FFFFFF;}
</style>
<g id="Ebene-1" serif:id="Ebene 1">
	<g id="text1749">
		<g>
			<g>
				<path class="st0" d="M130.3,453.6L271.8,85.9h38.6l-141,367.8H130.3L130.3,453.6z"/>
			</g>
			<g>
				<path class="st0" d="M269.9,453.6L411.4,85.9h38.6l-141,367.8H269.9L269.9,453.6z"/>
			</g>
			<g>
				<path class="st1" d="M480.6,424.6v-29.5l37.6-6.2V122.1l-37.6-6.7V85.9H735v81.5h-36.7l-5.2-45.7H564v117.2h124.3V275H564v113.9
					l38.1,6.2v29.5L480.6,424.6L480.6,424.6L480.6,424.6z"/>
			</g>
			<g>
				<path class="st1" d="M772.7,424.6v-29.5l37.6-6.2V122.1l-37.6-6.7V85.9h145.8c35.3,0,62.9,7.6,82.9,22.9
					c20,15.2,30,38.1,30,68.6c0,15.2-4.8,28.6-14.3,40.5c-9.5,11.9-21.9,21-37.6,26.7c13.3,2.4,25.2,8.1,34.8,16.2
					c10,8.1,17.6,18.1,22.9,30c5.2,11.4,8.1,24.3,8.1,38.1c0,31-10,54.8-30.5,71c-20,16.7-47.2,24.8-81.9,24.8L772.7,424.6
					L772.7,424.6L772.7,424.6z M856.1,388.9h76.7c21,0,37.6-5.2,49.1-15.7c11.4-10,17.1-24.8,17.1-43.8c0-13.3-1.9-24.8-6.2-33.8
					c-4.3-9.5-11-17.1-19.5-21.9c-9.1-5.2-20-7.6-33.3-7.6h-83.8L856.1,388.9L856.1,388.9L856.1,388.9z M856.1,229.8h74.3
					c16.7,0,30-4.8,40-14.3c10-9.5,15.2-22.4,15.2-39.1c0-18.1-5.7-31.9-17.1-41c-11.4-9.1-28.1-13.3-50-13.3h-62.4L856.1,229.8
					L856.1,229.8L856.1,229.8z"/>
			</g>
			<g>
				<path class="st1" d="M1097.9,497V37.3h89.1v36.2h-43.3v387.8h43.3V497L1097.9,497L1097.9,497L1097.9,497z"/>
			</g>
			<g>
				<path class="st1" d="M1323.6,424.6v-29.5l37.6-6.2v-42.4h-152v-25.7l149.1-234.9h48.6v224.8h46.7v35.7h-46.7v42.4l37.6,6.2v29.5
					L1323.6,424.6L1323.6,424.6L1323.6,424.6z M1257.8,310.7h103.4V151.1l-1.4-0.5l-4.8,12.4L1257.8,310.7L1257.8,310.7
					L1257.8,310.7z"/>
			</g>
			<g>
				<path class="st1" d="M1475.8,497v-35.7h43.8V73.5h-43.8V37.8h89.6V497L1475.8,497L1475.8,497z"/>
			</g>
		</g>
	</g>
	<g id="text122885">
		<path class="st2" d="M217.7,741.8V728l17.8-3.1V599.9l-17.8-3.1V583h119.4v38.2h-17.2l-2.4-21.5h-60.5v55H315v16.9h-58.1V725
			l17.8,3.1v13.7L217.7,741.8L217.7,741.8L217.7,741.8z"/>
		<path class="st2" d="M388.3,744.1c-12.3,0-21.6-3-28-9c-6.4-6-9.6-14.4-9.6-25.4c0-7.5,2.1-14,6.2-19.6c4.1-5.6,10-9.9,17.8-13
			c7.8-3.1,17.1-4.6,27.9-4.6h21V661c0-7.1-2.2-12.6-6.5-16.6c-4.3-3.9-10.4-5.9-18.3-5.9c-4.9,0-9.2,0.6-12.9,1.8
			c-3.6,1.2-6.9,2.9-9.9,5l-2.3,16.5h-16.6v-27c5.3-4.3,11.5-7.5,18.5-9.8c7.1-2.2,14.9-3.3,23.4-3.3c14.3,0,25.5,3.4,33.7,10.2
			c8.1,6.8,12.2,16.6,12.2,29.3V718c0,1.5,0,3,0.1,4.5c0,1.5,0.1,2.9,0.3,4.4l11.4,1.2v13.7H426c-0.7-3.2-1.2-6.1-1.5-8.6
			c-0.4-2.5-0.6-5.1-0.8-7.6c-4.1,5.3-9.3,9.7-15.5,13.2C402,742.3,395.4,744.1,388.3,744.1L388.3,744.1z M391.5,726.1
			c7.1,0,13.6-1.7,19.5-5.1c5.9-3.4,10.1-7.5,12.6-12.3v-21.4h-21.8c-9.9,0-17.3,2.4-22.2,7.1c-4.9,4.7-7.4,10-7.4,15.8
			c0,5.2,1.6,9.1,4.8,11.8C380.2,724.7,385,726.1,391.5,726.1L391.5,726.1z"/>
		<path class="st2" d="M526.9,744.1c-10.7,0-20-2.5-27.9-7.5c-7.9-5-14.1-11.9-18.4-20.8c-4.4-8.9-6.5-19.1-6.5-30.7v-4.6
			c0-11.2,2.1-21.2,6.3-30.1c4.2-8.9,10.3-15.9,18.2-21c7.9-5.2,17.4-7.7,28.3-7.7c9.5,0,17.9,1.6,25,4.7c7.2,3.1,13.2,7.4,18,12.9
			l0.5,28.3h-16.8l-3.7-20.6c-2.5-2.5-5.6-4.6-9.3-6.1c-3.7-1.5-8.1-2.3-13.1-2.3c-6.4,0-12,1.9-16.8,5.7
			c-4.8,3.8-8.6,8.8-11.3,15.2s-4,13.4-4,21.2v4.6c0,8.6,1.3,16,3.8,22.4c2.5,6.3,6.1,11.2,10.8,14.7c4.7,3.5,10.3,5.2,16.7,5.2
			c7.3,0,13.3-2,18.1-6c4.8-4,7.7-9.5,8.8-16.5H573l0.2,0.7c-0.4,6.8-2.4,13.1-6,19c-3.6,5.9-8.8,10.6-15.5,14.2
			S536.7,744.1,526.9,744.1L526.9,744.1z"/>
		<path class="st2" d="M587.2,741.8V728L605,725V588.6l-17.8-3.1v-13.8h39.3v67.8c4.1-5.7,9-10.1,14.9-13.2
			c5.9-3.1,12.4-4.7,19.6-4.7c12.6,0,22.5,3.8,29.4,11.3c7,7.6,10.5,19.2,10.5,34.9V725l17.8,3.1v13.7h-57V728l17.8-3.1v-57.4
			c0-9.7-2.1-16.9-6.3-21.6c-4.2-4.7-10.4-7-18.7-7c-5.9,0-11.2,1.4-16.1,4.2c-4.8,2.8-8.8,6.6-11.9,11.4V725l17.8,3.1v13.7H587.2
			L587.2,741.8L587.2,741.8z"/>
		<path class="st2" d="M781,744.1c-7.9,0-15.3-0.8-22.2-2.4c-6.9-1.6-14.2-4.1-22-7.4l-0.2-28h16.2l4,16.9c4.1,1.7,8,2.9,11.8,3.7
			c3.8,0.8,7.9,1.1,12.4,1.1c8.7,0,15-1.7,18.8-5c3.8-3.3,5.7-7.5,5.7-12.4c0-4.7-1.9-8.6-5.7-11.8c-3.8-3.2-10.7-6-20.8-8.2
			c-14.2-3.3-24.7-7.7-31.5-13.1c-6.7-5.5-10.1-12.8-10.1-22c0-6.4,1.9-12.1,5.6-17.2c3.7-5.1,8.9-9.1,15.5-12
			c6.6-3,14.3-4.5,23.1-4.5c8.9,0,16.6,1,23,3.1c6.4,2,11.9,4.8,16.6,8.2l1.1,26.9h-16.1l-3.5-15.7c-2.5-1.9-5.6-3.3-9-4.4
			c-3.5-1-7.5-1.5-12-1.5c-6.7,0-12.1,1.6-16.3,4.7c-4.2,3.1-6.3,7.1-6.3,11.8c0,2.8,0.6,5.2,1.8,7.2c1.2,2,3.5,3.9,6.9,5.5
			c3.4,1.6,8.4,3.3,15,4.9c16.4,3.9,27.9,8.8,34.4,14.7c6.5,6,9.8,13.3,9.8,22c0,10-3.7,18.3-11.1,25
			C808.5,740.7,796.9,744.1,781,744.1L781,744.1z"/>
		<path class="st2" d="M898,744.1c-10.7,0-20-2.5-27.9-7.5c-7.9-5-14.1-11.9-18.4-20.8c-4.4-8.9-6.5-19.1-6.5-30.7v-4.6
			c0-11.2,2.1-21.2,6.3-30.1c4.2-8.9,10.3-15.9,18.2-21c7.9-5.2,17.4-7.7,28.3-7.7c9.5,0,17.9,1.6,25,4.7c7.2,3.1,13.2,7.4,18,12.9
			l0.5,28.3h-16.8l-3.7-20.6c-2.5-2.5-5.6-4.6-9.3-6.1c-3.7-1.5-8.1-2.3-13.1-2.3c-6.4,0-12,1.9-16.8,5.7
			c-4.8,3.8-8.6,8.8-11.3,15.2c-2.7,6.3-4,13.4-4,21.2v4.6c0,8.6,1.3,16,3.8,22.4c2.5,6.3,6.1,11.2,10.8,14.7
			c4.7,3.5,10.3,5.2,16.7,5.2c7.3,0,13.3-2,18.1-6c4.8-4,7.7-9.5,8.8-16.5h19.3l0.2,0.7c-0.4,6.8-2.4,13.1-6,19
			c-3.6,5.9-8.8,10.6-15.5,14.2S907.8,744.1,898,744.1L898,744.1z"/>
		<path class="st2" d="M958.3,741.8V728l17.8-3.1V588.6l-17.8-3.1v-13.8h39.3v67.8c4.1-5.7,9-10.1,14.9-13.2
			c5.9-3.1,12.4-4.7,19.6-4.7c12.6,0,22.5,3.8,29.4,11.3c7,7.6,10.5,19.2,10.5,34.9V725l17.8,3.1v13.7h-57V728l17.8-3.1v-57.4
			c0-9.7-2.1-16.9-6.3-21.6c-4.2-4.7-10.4-7-18.7-7c-5.9,0-11.2,1.4-16.1,4.2c-4.8,2.8-8.8,6.6-11.9,11.4V725l17.8,3.1v13.7H958.3
			L958.3,741.8L958.3,741.8z"/>
		<path class="st2" d="M1142.6,744.1c-12.3,0-21.6-3-28-9c-6.4-6-9.6-14.4-9.6-25.4c0-7.5,2.1-14,6.2-19.6c4.1-5.6,10-9.9,17.8-13
			c7.8-3.1,17.1-4.6,27.9-4.6h21V661c0-7.1-2.2-12.6-6.5-16.6c-4.3-3.9-10.4-5.9-18.3-5.9c-4.9,0-9.2,0.6-12.9,1.8
			c-3.6,1.2-6.9,2.9-9.9,5l-2.3,16.5h-16.6v-27c5.3-4.3,11.5-7.5,18.5-9.8c7.1-2.2,14.9-3.3,23.4-3.3c14.3,0,25.5,3.4,33.7,10.2
			c8.1,6.8,12.2,16.6,12.2,29.3V718c0,1.5,0,3,0.1,4.5c0,1.5,0.1,2.9,0.3,4.4l11.4,1.2v13.7h-30.9c-0.7-3.2-1.2-6.1-1.5-8.6
			c-0.4-2.5-0.6-5.1-0.8-7.6c-4.1,5.3-9.3,9.7-15.5,13.2C1156.3,742.3,1149.6,744.1,1142.6,744.1L1142.6,744.1z M1145.8,726.1
			c7.1,0,13.6-1.7,19.5-5.1c5.9-3.4,10.1-7.5,12.6-12.3v-21.4h-21.8c-9.9,0-17.3,2.4-22.2,7.1c-4.9,4.7-7.4,10-7.4,15.8
			c0,5.2,1.6,9.1,4.8,11.8C1134.4,724.7,1139.3,726.1,1145.8,726.1L1145.8,726.1z"/>
		<path class="st2" d="M1227.4,741.8V728l17.8-3.1v-85.3h-18.4v-15.9h18.4v-14.9c0-12.6,3.3-22.3,9.9-29.2
			c6.6-6.9,15.8-10.3,27.5-10.3c2.5,0,5.1,0.2,8,0.6c2.9,0.4,5.8,1,8.9,1.7l-2.6,16.4c-1.3-0.3-3.1-0.5-5.3-0.8
			c-2.2-0.2-4.3-0.3-6.3-0.3c-6.3,0-11,1.9-14.1,5.6c-3.1,3.7-4.6,9.2-4.6,16.3v14.9h25.7v15.9h-25.7V725l20.3,3.1v13.7H1227.4
			L1227.4,741.8z"/>
		<path class="st2" d="M1348.6,743.6c-8.7,0-15.6-2.6-20.8-7.7c-5.1-5.1-7.7-13.3-7.7-24.6v-71.6h-18.6v-15.9h18.6v-28.5h21.5v28.5
			h25.6v15.9h-25.6v71.6c0,5.7,1.1,9.8,3.4,12.5c2.3,2.7,5.3,4,9,4c2.5,0,5.4-0.2,8.5-0.7c3.1-0.5,5.6-0.9,7.3-1.3l2.9,14.1
			c-3.1,0.9-7,1.8-11.5,2.5C1356.7,743.3,1352.5,743.6,1348.6,743.6L1348.6,743.6z"/>
		<path class="st2" d="M1434.2,744.1c-7.9,0-15.3-0.8-22.2-2.4c-6.9-1.6-14.2-4.1-22-7.4l-0.2-28h16.2l4,16.9
			c4.1,1.7,8,2.9,11.8,3.7c3.8,0.8,7.9,1.1,12.4,1.1c8.7,0,15-1.7,18.8-5c3.8-3.3,5.7-7.5,5.7-12.4c0-4.7-1.9-8.6-5.7-11.8
			c-3.8-3.2-10.7-6-20.8-8.2c-14.2-3.3-24.7-7.7-31.5-13.1c-6.7-5.5-10.1-12.8-10.1-22c0-6.4,1.9-12.1,5.6-17.2
			c3.7-5.1,8.9-9.1,15.5-12c6.6-3,14.3-4.5,23.1-4.5c8.9,0,16.6,1,23,3.1c6.4,2,11.9,4.8,16.6,8.2l1.1,26.9h-16.1l-3.5-15.7
			c-2.5-1.9-5.6-3.3-9-4.4c-3.5-1-7.5-1.5-12-1.5c-6.7,0-12.1,1.6-16.3,4.7c-4.2,3.1-6.3,7.1-6.3,11.8c0,2.8,0.6,5.2,1.8,7.2
			c1.2,2,3.5,3.9,6.9,5.5c3.4,1.6,8.4,3.3,15,4.9c16.4,3.9,27.9,8.8,34.4,14.7c6.5,6,9.8,13.3,9.8,22c0,10-3.7,18.3-11.1,25
			C1461.7,740.7,1450.1,744.1,1434.2,744.1L1434.2,744.1z"/>
		<path class="st2" d="M1497.7,741.8V728l17.8-3.1v-84.3l-17.8-3.1v-13.8h37l1.9,15l0.2,2.1c3.3-6,7.5-10.8,12.4-14.2
			c4.9-3.4,10.5-5.1,16.8-5.1c2.3,0,4.6,0.2,6.9,0.6c2.4,0.4,4.1,0.8,5.1,1.1l-2.8,20l-14.9-0.9c-5.7-0.4-10.4,0.9-14.3,3.9
			c-3.9,2.9-6.8,6.9-8.9,11.8V725l17.8,3.1v13.7L1497.7,741.8L1497.7,741.8L1497.7,741.8z"/>
		<path class="st2" d="M1629.2,744.1c-12.3,0-21.6-3-28-9c-6.4-6-9.6-14.4-9.6-25.4c0-7.5,2.1-14,6.2-19.6c4.1-5.6,10-9.9,17.8-13
			c7.8-3.1,17.1-4.6,27.9-4.6h21V661c0-7.1-2.2-12.6-6.5-16.6c-4.3-3.9-10.4-5.9-18.3-5.9c-4.9,0-9.2,0.6-12.9,1.8
			c-3.6,1.2-6.9,2.9-9.9,5l-2.3,16.5h-16.6v-27c5.3-4.3,11.5-7.5,18.5-9.8c7.1-2.2,14.9-3.3,23.4-3.3c14.3,0,25.5,3.4,33.7,10.2
			c8.1,6.8,12.2,16.6,12.2,29.3V718c0,1.5,0,3,0.1,4.5c0,1.5,0.1,2.9,0.3,4.4l11.4,1.2v13.7h-30.9c-0.7-3.2-1.2-6.1-1.5-8.6
			c-0.4-2.5-0.6-5.1-0.8-7.6c-4.1,5.3-9.3,9.7-15.5,13.2C1642.9,742.3,1636.3,744.1,1629.2,744.1L1629.2,744.1z M1632.4,726.1
			c7.1,0,13.6-1.7,19.5-5.1c5.9-3.4,10.1-7.5,12.6-12.3v-21.4h-21.8c-9.9,0-17.3,2.4-22.2,7.1c-4.9,4.7-7.4,10-7.4,15.8
			c0,5.2,1.6,9.1,4.8,11.8C1621.1,724.7,1625.9,726.1,1632.4,726.1z"/>
		<path class="st2" d="M1756.1,743.6c-8.7,0-15.6-2.6-20.8-7.7c-5.1-5.1-7.7-13.3-7.7-24.6v-71.6H1709v-15.9h18.6v-28.5h21.5v28.5
			h25.6v15.9h-25.6v71.6c0,5.7,1.1,9.8,3.4,12.5c2.3,2.7,5.3,4,9,4c2.5,0,5.4-0.2,8.5-0.7c3.1-0.5,5.6-0.9,7.3-1.3l2.9,14.1
			c-3.1,0.9-7,1.8-11.5,2.5C1764.3,743.3,1760,743.6,1756.1,743.6L1756.1,743.6z"/>
		<path class="st2" d="M647.6,1022.5v-13.7l17.8-3.1V880.6l-17.8-3.1v-13.8h57v13.8l-17.8,3.1v125.1l17.8,3.1v13.7H647.6z"/>
		<path class="st2" d="M721.5,1022.5v-13.7l17.8-3.1v-84.3l-17.8-3.1v-13.8h37l1.5,17.6c3.9-6.3,8.8-11.1,14.8-14.6
			c5.9-3.5,12.7-5.2,20.2-5.2c12.7,0,22.6,3.7,29.5,11.2c7,7.5,10.5,19,10.5,34.5v57.7l17.8,3.1v13.7h-57v-13.7l17.8-3.1v-57.2
			c0-10.4-2.1-17.8-6.2-22.1c-4.1-4.4-10.4-6.5-18.8-6.5c-6.2,0-11.6,1.5-16.4,4.5c-4.8,3-8.6,7.1-11.4,12.2v69.2l17.8,3.1v13.7
			L721.5,1022.5L721.5,1022.5L721.5,1022.5z"/>
		<path class="st2" d="M867.5,1022.5v-13.7l17.8-3.1v-85.3h-18.4v-15.9h18.4v-14.9c0-12.6,3.3-22.3,9.9-29.2
			c6.6-6.9,15.8-10.3,27.5-10.3c2.5,0,5.1,0.2,8,0.6c2.9,0.4,5.8,1,8.9,1.7l-2.6,16.4c-1.3-0.3-3.1-0.5-5.3-0.8
			c-2.2-0.2-4.3-0.3-6.3-0.3c-6.3,0-11,1.9-14.1,5.6c-3.1,3.7-4.6,9.2-4.6,16.3v14.9h25.7v15.9h-25.7v85.3l20.3,3.1v13.7
			L867.5,1022.5L867.5,1022.5L867.5,1022.5z"/>
		<path class="st2" d="M999.2,1024.8c-10.9,0-20.3-2.6-28.2-7.7c-7.9-5.1-14-12.2-18.3-21.3c-4.3-9-6.4-19.4-6.4-31v-2.4
			c0-11.6,2.1-22,6.4-31c4.3-9,10.4-16.2,18.3-21.3c7.9-5.2,17.2-7.7,28-7.7c10.9,0,20.3,2.6,28.2,7.7c7.9,5.2,14,12.2,18.3,21.3
			c4.3,9,6.4,19.4,6.4,31.1v2.4c0,11.7-2.1,22.1-6.4,31.1c-4.3,9-10.4,16.1-18.2,21.2C1019.4,1022.2,1010,1024.8,999.2,1024.8
			L999.2,1024.8z M999.2,1008c6.8,0,12.6-1.9,17.2-5.6c4.6-3.7,8.1-8.9,10.5-15.4c2.4-6.5,3.5-13.9,3.5-22.2v-2.4
			c0-8.3-1.2-15.7-3.5-22.2c-2.4-6.5-5.9-11.6-10.5-15.4c-4.7-3.7-10.4-5.6-17.3-5.6c-6.8,0-12.6,1.9-17.2,5.6
			c-4.7,3.7-8.1,8.9-10.5,15.4c-2.3,6.5-3.5,13.9-3.5,22.2v2.4c0,8.3,1.2,15.7,3.5,22.2c2.3,6.5,5.8,11.6,10.5,15.4
			C986.5,1006.1,992.3,1008,999.2,1008z"/>
		<path class="st2" d="M1068.2,1022.5v-13.7l17.8-3.1v-84.3l-17.8-3.1v-13.8h37l1.9,15l0.2,2.1c3.3-6,7.5-10.8,12.4-14.2
			c4.9-3.4,10.5-5.1,16.8-5.1c2.3,0,4.6,0.2,6.9,0.6c2.4,0.4,4.1,0.8,5.1,1.1l-2.8,20l-14.9-0.9c-5.7-0.4-10.4,0.9-14.3,3.9
			c-3.9,2.9-6.8,6.9-8.9,11.8v66.8l17.8,3.1v13.7L1068.2,1022.5L1068.2,1022.5L1068.2,1022.5z"/>
		<path class="st2" d="M1161.5,1022.5v-13.7l17.8-3.1v-84.3l-17.8-3.1v-13.8h37.1l1.4,15.4c3.8-5.6,8.7-9.9,14.6-13
			c6-3.1,12.9-4.6,20.7-4.6c7.9,0,14.6,1.8,20.2,5.5c5.6,3.6,9.9,9.1,12.7,16.4c3.7-6.7,8.6-12,14.7-15.9c6.1-3.9,13.2-5.9,21.4-5.9
			c12.1,0,21.6,4.1,28.6,12.4c7,8.3,10.5,20.7,10.5,37.2v53.8l17.8,3.1v13.7H1304v-13.7l17.8-3.1v-54c0-11.6-2-19.9-6-24.7
			c-4-4.8-9.9-7.3-17.8-7.3c-7.5,0-13.5,2.6-18,7.9c-4.5,5.3-7.2,11.9-7.9,19.9v58.1l17.8,3.1v13.7h-57v-13.7l17.8-3.1v-54
			c0-11-2.1-19.1-6.2-24.3c-4.1-5.1-10-7.7-17.8-7.7c-6.5,0-11.9,1.3-16.1,4c-4.2,2.7-7.5,6.5-9.7,11.3v70.5l17.8,3.1v13.7
			L1161.5,1022.5L1161.5,1022.5L1161.5,1022.5z"/>
		<path class="st2" d="M1415.3,1024.8c-12.3,0-21.6-3-28-9c-6.4-6-9.6-14.4-9.6-25.3c0-7.5,2.1-14,6.2-19.6c4.1-5.6,10-9.9,17.8-13
			c7.8-3.1,17.1-4.6,27.9-4.6h21v-11.6c0-7.1-2.2-12.6-6.5-16.6c-4.3-3.9-10.4-5.9-18.3-5.9c-4.9,0-9.2,0.6-12.9,1.8
			c-3.6,1.2-6.9,2.9-9.9,5l-2.3,16.5h-16.6v-27c5.3-4.3,11.5-7.5,18.5-9.8c7.1-2.2,14.9-3.3,23.4-3.3c14.3,0,25.5,3.4,33.7,10.2
			c8.1,6.8,12.2,16.6,12.2,29.3v56.8c0,1.5,0,3,0.1,4.5c0,1.5,0.1,2.9,0.3,4.4l11.4,1.2v13.7H1453c-0.7-3.2-1.2-6.1-1.5-8.6
			c-0.4-2.5-0.6-5.1-0.8-7.6c-4.1,5.3-9.3,9.7-15.5,13.2C1428.9,1023,1422.3,1024.8,1415.3,1024.8L1415.3,1024.8L1415.3,1024.8z
			 M1418.4,1006.8c7.1,0,13.6-1.7,19.5-5.1c5.9-3.4,10.1-7.5,12.6-12.3V968h-21.8c-9.9,0-17.3,2.4-22.2,7.1
			c-4.9,4.7-7.4,10-7.4,15.8c0,5.2,1.6,9.1,4.8,11.8C1407.1,1005.4,1412,1006.8,1418.4,1006.8z"/>
		<path class="st2" d="M1542.2,1024.4c-8.7,0-15.6-2.6-20.8-7.7c-5.1-5.1-7.7-13.3-7.7-24.6v-71.6h-18.6v-15.9h18.6v-28.5h21.5v28.5
			h25.6v15.9h-25.6v71.6c0,5.7,1.1,9.8,3.4,12.5c2.3,2.7,5.3,4,9,4c2.5,0,5.4-0.2,8.5-0.7c3.1-0.5,5.6-0.9,7.3-1.3l2.9,14.1
			c-3.1,0.9-7,1.8-11.5,2.5C1550.3,1024,1546.1,1024.4,1542.2,1024.4z"/>
		<path class="st2" d="M1579.4,1022.5v-13.7l17.8-3.1v-84.3l-17.8-3.1v-13.8h39.3v101.2l17.8,3.1v13.7L1579.4,1022.5L1579.4,1022.5
			L1579.4,1022.5z M1596,875.4v-23h22.6v23H1596z"/>
		<path class="st2" d="M1650.1,1022.5v-13.7l17.8-3.1V869.3l-17.8-3.1v-13.8h39.3v153.3l17.8,3.1v13.7L1650.1,1022.5L1650.1,1022.5
			L1650.1,1022.5z M1725.9,1022.5v-13.7l12-1.4l-0.3-0.4l-34.1-44l11.1-17.1l47.6,60.4l17,2.6v13.7L1725.9,1022.5L1725.9,1022.5
			L1725.9,1022.5z M1687.8,988.4l-8-16.9l51.2-51l0.5-0.7l-12.6-1.4v-13.8h50.8v13.8l-15.2,2.8L1687.8,988.4L1687.8,988.4
			L1687.8,988.4z"/>
	</g>
</g>
</svg>
