<?xml version="1.0" encoding="UTF-8" standalone="no"?>
<!DOCTYPE svg PUBLIC "-//W3C//DTD SVG 1.1//EN" "http://www.w3.org/Graphics/SVG/1.1/DTD/svg11.dtd">
<svg width="100%" height="100%" viewBox="0 0 12843 4696" version="1.1" xmlns="http://www.w3.org/2000/svg" xmlns:xlink="http://www.w3.org/1999/xlink" xml:space="preserve" xmlns:serif="http://www.serif.com/" style="fill-rule:evenodd;clip-rule:evenodd;stroke-linejoin:round;stroke-miterlimit:2;">
    <g transform="matrix(1,0,0,1,-644,-644)">
        <g transform="matrix(0.321457,0,0,0.321457,701.871,658.119)">
            <g id="Ebene-1" serif:id="Ebene 1">
                <g id="text1749">
                    <g>
                        <g>
                            <path d="M1034.39,11798.1L4713.98,2233.63L5717.5,2233.63L2050.3,11798.1L1034.38,11798.1L1034.39,11798.1Z" style="fill:rgb(102,102,102);fill-rule:nonzero;"/>
                        </g>
                        <g>
                            <path d="M4664.04,11798.1L8343.63,2233.63L9347.15,2233.63L5679.95,11798.1L4664.03,11798.1L4664.04,11798.1Z" style="fill:rgb(102,102,102);fill-rule:nonzero;"/>
                        </g>
                        <g>
                            <path d="M10144.3,11042.4L10144.3,10274.3L11123,10113.2L11123,3175.26L10144.3,3001.81L10144.3,2233.68L16760.1,2233.68L16760.1,4352.24L15806.2,4352.24L15669.9,3162.88L12312.4,3162.88L12312.4,6210.62L15546,6210.62L15546,7152.2L12312.4,7152.2L12312.4,10113.2L13303.5,10274.3L13303.5,11042.4L10144.3,11042.4L10144.3,11042.4L10144.3,11042.4Z" style="fill:rgb(245,85,0);fill-rule:nonzero;"/>
                        </g>
                        <g>
                            <path d="M17742.4,11042.4L17742.4,10274.3L18721.1,10113.2L18721.1,3175.26L17742.4,3001.81L17742.4,2233.68L21533.5,2233.68C22450.3,2233.68 23168.9,2431.91 23689.2,2828.36C24209.6,3224.82 24469.7,3819.5 24469.7,4612.4C24469.7,5008.86 24345.8,5355.75 24098.1,5665.48C23850.3,5975.21 23528.2,6210.61 23119.3,6359.28C23466.2,6421.22 23775.9,6569.89 24023.7,6780.51C24283.9,6991.12 24482.1,7251.3 24618.4,7561.03C24754.7,7858.37 24829,8192.88 24829,8552.17C24829,9357.46 24568.9,9976.93 24036.1,10398.2C23515.8,10831.8 22809.6,11042.4 21905.2,11042.4L17742.4,11042.4L17742.4,11042.4L17742.4,11042.4ZM19910.5,10113.2L21905.2,10113.2C22450.3,10113.2 22883.9,9976.93 23181.3,9704.36C23478.6,9444.19 23627.3,9060.13 23627.3,8564.56C23627.3,8217.66 23577.7,7920.32 23466.2,7684.92C23354.7,7437.14 23181.3,7238.91 22958.3,7115.02C22722.9,6978.74 22437.9,6916.79 22091,6916.79L19910.5,6916.79L19910.5,10113.2L19910.5,10113.2L19910.5,10113.2ZM19910.5,5975.21L21843.2,5975.21C22276.9,5975.21 22623.8,5851.32 22883.9,5603.53C23144.1,5355.75 23280.4,5021.24 23280.4,4587.62C23280.4,4116.83 23131.7,3757.55 22834.4,3522.15C22537,3286.76 22103.4,3175.26 21533.5,3175.26L19910.5,3175.26L19910.5,5975.23L19910.5,5975.22L19910.5,5975.21Z" style="fill:rgb(245,85,0);fill-rule:nonzero;"/>
                        </g>
                        <g>
                            <path d="M26198.1,12925.5L26198.1,969.9L28514.9,969.9L28514.9,1911.48L27387.5,1911.48L27387.5,11996.3L28514.9,11996.3L28514.9,12925.5L26198.1,12925.5L26198.1,12925.5Z" style="fill:rgb(245,85,0);fill-rule:nonzero;"/>
                        </g>
                        <g>
                            <path d="M32068.1,11042.4L32068.1,10274.3L33046.8,10113.2L33046.8,9010.57L29094.7,9010.57L29094.7,8341.55L32972.5,2233.67L34236.2,2233.67L34236.2,8081.38L35450.4,8081.38L35450.4,9010.57L34236.2,9010.57L34236.2,10113.2L35215,10274.3L35215,11042.4L32068.1,11042.4L32068.1,11042.4L32068.1,11042.4ZM30358.4,8081.38L33046.8,8081.38L33046.8,3930.99L33009.7,3918.6L32885.8,4240.72L30358.4,8081.37L30358.4,8081.38L30358.4,8081.38Z" style="fill:rgb(245,85,0);fill-rule:nonzero;"/>
                        </g>
                        <g>
                            <path d="M36027.3,12925.5L36027.3,11996.3L37167.1,11996.3L37167.1,1911.5L36027.3,1911.5L36027.3,982.313L38356.5,982.313L38356.5,12925.5L36027.3,12925.5Z" style="fill:rgb(245,85,0);fill-rule:nonzero;"/>
                        </g>
                    </g>
                </g>
            </g>
        </g>
    </g>
</svg>
